<svg width="960" height="640" viewBox="0 0 960 640" fill="none" xmlns="http://www.w3.org/2000/svg">
  <rect width="960" height="640" fill="#181818"/>
  <path d="M78 494L846 196" stroke="#8b867f" stroke-width="7" stroke-linecap="square"/>
  <path d="M112 546L882 248" stroke="#3f403d" stroke-width="5" stroke-linecap="square"/>
  <path d="M164 460L266 420L302 456L200 496L164 460Z" fill="#242424" stroke="#e9ebdf" stroke-width="3"/>
  <path d="M290 411L392 371L428 407L326 447L290 411Z" fill="#242424" stroke="#e9ebdf" stroke-width="3"/>
  <path d="M416 362L518 322L554 358L452 398L416 362Z" fill="#242424" stroke="#e9ebdf" stroke-width="3"/>
  <path d="M542 313L644 273L680 309L578 349L542 313Z" fill="#242424" stroke="#e9ebdf" stroke-width="3"/>
  <path d="M668 264L770 224L806 260L704 300L668 264Z" fill="#242424" stroke="#e9ebdf" stroke-width="3"/>
  <path d="M78 494H882" stroke="#185849" stroke-width="2" stroke-dasharray="14 18"/>
  <circle cx="804" cy="234" r="42" fill="#0e352c" stroke="#3f403d" stroke-width="2"/>
  <path d="M783 235H825M804 214V256" stroke="#e9ebdf" stroke-width="3"/>
</svg>
